<?xml version="1.0" standalone="no"?>
<!DOCTYPE svg PUBLIC "-//W3C//DTD SVG 20010904//EN"
 "http://www.w3.org/TR/2001/REC-SVG-20010904/DTD/svg10.dtd">
<svg version="1.0" xmlns="http://www.w3.org/2000/svg"
 width="512.000000pt" height="512.000000pt" viewBox="0 0 512.000000 512.000000"
 preserveAspectRatio="xMidYMid meet">
<metadata>
Created by potrace 1.14, written by Peter Selinger 2001-2017
</metadata>
<g transform="translate(0.000000,512.000000) scale(0.100000,-0.100000)"
fill="#000000" stroke="none">
<path d="M1757 4794 c-1 -1 -29 -4 -62 -7 -85 -8 -228 -41 -310 -72 -244 -91
-383 -253 -441 -510 -4 -16 -9 -261 -11 -544 -3 -412 -6 -527 -18 -579 -43
-182 -193 -345 -342 -368 l-42 -6 1 -139 0 -139 27 -6 c66 -15 120 -37 162
-68 117 -86 201 -251 208 -406 1 -30 3 -264 5 -520 2 -256 6 -481 10 -500 68
-342 334 -543 771 -585 122 -11 215 -14 216 -7 4 25 3 535 -1 542 -3 4 -32 11
-65 14 -184 20 -279 90 -310 231 -4 17 -8 224 -10 460 -3 455 -6 486 -55 617
-46 125 -161 260 -279 329 l-61 36 63 39 c176 108 292 286 323 494 4 25 7 234
9 465 1 231 5 434 10 450 37 137 133 208 300 222 39 3 72 8 75 10 2 2 5 128 5
279 l0 275 -88 -3 c-49 -2 -89 -4 -90 -4z"/>
<path d="M3222 4529 c0 -145 1 -271 4 -279 3 -11 20 -16 56 -18 60 -3 66 -4
127 -21 115 -33 178 -110 197 -244 3 -21 7 -226 9 -455 1 -253 6 -437 13 -467
41 -189 160 -358 314 -447 32 -18 58 -36 58 -40 0 -3 -24 -20 -54 -36 -112
-64 -226 -197 -276 -322 -51 -127 -53 -147 -56 -611 -1 -298 -6 -449 -14 -480
-43 -157 -138 -217 -366 -228 -16 -1 -16 -548 0 -554 14 -5 89 -2 196 7 397
34 663 204 754 482 9 28 19 62 21 75 3 13 8 38 12 54 3 17 7 260 8 540 2 458
4 516 20 570 27 91 68 166 126 229 71 78 120 105 229 130 l25 5 0 141 0 140
-25 0 c-38 1 -133 43 -181 81 -83 65 -162 202 -185 319 -4 19 -8 258 -9 530
-1 272 -5 515 -9 540 -35 207 -132 360 -292 462 -102 64 -252 117 -385 134
-24 3 -55 7 -69 10 -14 2 -75 7 -136 10 l-111 6 -1 -263z"/>
</g>
</svg>
